<svg width="62" height="46" viewBox="0 0 62 46" fill="none" xmlns="http://www.w3.org/2000/svg">
<g filter="url(#filter0_d_1226:545)">
<rect x="7" y="4" width="48" height="32" rx="16" fill="#669128"/>
<path d="M37.7021 23.1118H26.6396L26.3396 21.5493H37.7521C38.1119 21.5503 38.4608 21.4261 38.739 21.1981C39.0173 20.97 39.2075 20.6523 39.2771 20.2993L40.3271 15.2993C40.3755 15.0719 40.3725 14.8366 40.3184 14.6105C40.2642 14.3844 40.1603 14.1732 40.0142 13.9923C39.8681 13.8115 39.6835 13.6655 39.4738 13.5651C39.2641 13.4647 39.0346 13.4123 38.8021 13.4118H24.7646L24.4896 11.8618H21.6396V13.4243H23.2021L25.0771 23.2243C24.5326 23.353 24.0469 23.6607 23.6979 24.098C23.3489 24.5354 23.1567 25.0773 23.1521 25.6368C23.1814 26.3254 23.4816 26.9745 23.9873 27.4428C24.4931 27.9111 25.1633 28.1605 25.8521 28.1368C26.5355 28.1537 27.198 27.9009 27.6963 27.433C28.1946 26.9651 28.4886 26.3198 28.5146 25.6368C28.5123 25.3059 28.4444 24.9788 28.3146 24.6743H35.1771C35.0474 24.9788 34.9795 25.3059 34.9771 25.6368C35.0064 26.3254 35.3066 26.9745 35.8123 27.4428C36.3181 27.9111 36.9883 28.1605 37.6771 28.1368C38.3402 28.1368 38.9761 27.8734 39.4449 27.4046C39.9138 26.9357 40.1771 26.2999 40.1771 25.6368C40.1771 24.9738 39.9138 24.3379 39.4449 23.8691C38.9761 23.4002 38.3402 23.1368 37.6771 23.1368L37.7021 23.1118ZM38.8021 15.0118L37.7521 20.0118H26.0146L25.0896 15.0118H38.8021ZM25.8521 26.5993C25.5826 26.6068 25.3202 26.5116 25.1183 26.3329C24.9163 26.1541 24.7899 25.9053 24.7646 25.6368C24.7901 25.3592 24.9236 25.1028 25.1364 24.9227C25.3492 24.7427 25.6242 24.6535 25.9021 24.6743C26.1788 24.6536 26.4524 24.7432 26.6632 24.9235C26.8739 25.1039 27.0048 25.3603 27.0271 25.6368C27.0164 25.7784 26.977 25.9163 26.9114 26.0422C26.8458 26.1681 26.7554 26.2795 26.6455 26.3694C26.5357 26.4594 26.4088 26.5262 26.2724 26.5657C26.136 26.6052 25.9931 26.6166 25.8521 26.5993ZM37.7021 26.5993C37.4242 26.6202 37.1492 26.5309 36.9364 26.3509C36.7236 26.1708 36.5901 25.9144 36.5646 25.6368C36.613 25.3721 36.7528 25.1327 36.9595 24.9604C37.1662 24.788 37.4268 24.6936 37.6959 24.6936C37.965 24.6936 38.2256 24.788 38.4323 24.9604C38.639 25.1327 38.7787 25.3721 38.8271 25.6368C38.8017 25.9121 38.6699 26.1666 38.4599 26.3463C38.2498 26.526 37.978 26.6168 37.7021 26.5993Z" fill="white"/>
</g>
<defs>
<filter id="filter0_d_1226:545" x="9.53674e-07" y="7.15256e-07" width="62" height="46" filterUnits="userSpaceOnUse" color-interpolation-filters="sRGB">
<feFlood flood-opacity="0" result="BackgroundImageFix"/>
<feColorMatrix in="SourceAlpha" type="matrix" values="0 0 0 0 0 0 0 0 0 0 0 0 0 0 0 0 0 0 127 0" result="hardAlpha"/>
<feOffset dy="3"/>
<feGaussianBlur stdDeviation="3.5"/>
<feColorMatrix type="matrix" values="0 0 0 0 0.152941 0 0 0 0 0.254902 0 0 0 0 0.337255 0 0 0 0.15 0"/>
<feBlend mode="normal" in2="BackgroundImageFix" result="effect1_dropShadow_1226:545"/>
<feBlend mode="normal" in="SourceGraphic" in2="effect1_dropShadow_1226:545" result="shape"/>
</filter>
</defs>
</svg>
